<mxfile host="app.diagrams.net" agent="Mozilla/5.0 (Windows NT 10.0; Win64; x64) AppleWebKit/537.36 (KHTML, like Gecko) Chrome/137.0.0.0 Safari/537.36" version="26.2.12">
  <diagram name="페이지-1" id="ERhhVk5ujOUQOD0_T1k8">
    <mxGraphModel dx="1233" dy="778" grid="1" gridSize="10" guides="1" tooltips="1" connect="1" arrows="1" fold="1" page="1" pageScale="1" pageWidth="827" pageHeight="1169" math="0" shadow="0">
      <root>
        <mxCell id="0" />
        <mxCell id="1" parent="0" />
        <mxCell id="8attIl3rUHplhbKrGd8N-18" value="Public" style="sketch=0;outlineConnect=0;html=1;whiteSpace=wrap;fontSize=12;fontStyle=0;shape=mxgraph.aws4.group;grIcon=mxgraph.aws4.group_subnet;strokeColor=#82b366;fillColor=#d5e8d4;verticalAlign=top;align=left;spacingLeft=30;dashed=0;movable=1;resizable=1;rotatable=1;deletable=1;editable=1;locked=0;connectable=1;" vertex="1" parent="1">
          <mxGeometry x="120" y="560.5" width="600" height="189.5" as="geometry" />
        </mxCell>
        <mxCell id="8attIl3rUHplhbKrGd8N-16" value="" style="whiteSpace=wrap;html=1;aspect=fixed;fillStyle=hatch;fillColor=none;" vertex="1" parent="1">
          <mxGeometry x="374" y="615.25" width="80" height="80" as="geometry" />
        </mxCell>
        <mxCell id="8attIl3rUHplhbKrGd8N-5" value="DMZ" style="sketch=0;outlineConnect=0;html=1;whiteSpace=wrap;fontSize=12;fontStyle=0;shape=mxgraph.aws4.group;grIcon=mxgraph.aws4.group_subnet;strokeColor=#d6b656;fillColor=#fff2cc;verticalAlign=top;align=left;spacingLeft=30;dashed=0;movable=0;resizable=0;rotatable=0;deletable=0;editable=0;locked=1;connectable=0;" vertex="1" parent="1">
          <mxGeometry x="120" y="400" width="600" height="120" as="geometry" />
        </mxCell>
        <mxCell id="8attIl3rUHplhbKrGd8N-6" value="Private" style="sketch=0;outlineConnect=0;html=1;whiteSpace=wrap;fontSize=12;fontStyle=0;shape=mxgraph.aws4.group;grIcon=mxgraph.aws4.group_subnet;strokeColor=#6c8ebf;fillColor=#dae8fc;verticalAlign=top;align=left;spacingLeft=30;dashed=0;" vertex="1" parent="1">
          <mxGeometry x="120" y="80" width="600" height="280" as="geometry" />
        </mxCell>
        <mxCell id="8attIl3rUHplhbKrGd8N-9" value="" style="whiteSpace=wrap;html=1;aspect=fixed;fillStyle=hatch;fillColor=none;glass=0;rounded=0;shadow=0;" vertex="1" parent="1">
          <mxGeometry x="374" y="420" width="80" height="80" as="geometry" />
        </mxCell>
        <mxCell id="8attIl3rUHplhbKrGd8N-7" value="Bastion" style="shape=rect;fillColor=#FA4D56;aspect=fixed;resizable=0;labelPosition=center;verticalLabelPosition=bottom;align=center;verticalAlign=top;strokeColor=none;fontSize=14;rounded=0;" vertex="1" parent="1">
          <mxGeometry x="390" y="426" width="50" height="50" as="geometry" />
        </mxCell>
        <mxCell id="8attIl3rUHplhbKrGd8N-8" value="" style="fillColor=#ffffff;strokeColor=none;dashed=0;outlineConnect=0;html=1;labelPosition=center;verticalLabelPosition=bottom;verticalAlign=top;part=1;movable=0;resizable=0;rotatable=0;shape=mxgraph.ibm_cloud.bastion-host" vertex="1" parent="8attIl3rUHplhbKrGd8N-7">
          <mxGeometry width="24" height="24" relative="1" as="geometry">
            <mxPoint x="12" y="12" as="offset" />
          </mxGeometry>
        </mxCell>
        <mxCell id="8attIl3rUHplhbKrGd8N-12" value="" style="whiteSpace=wrap;html=1;aspect=fixed;fillStyle=hatch;fillColor=none;" vertex="1" parent="1">
          <mxGeometry x="374" y="180" width="80" height="80" as="geometry" />
        </mxCell>
        <mxCell id="8attIl3rUHplhbKrGd8N-14" value="" style="sketch=0;pointerEvents=1;shadow=0;dashed=0;html=1;strokeColor=none;fillColor=#505050;labelPosition=center;verticalLabelPosition=bottom;verticalAlign=top;outlineConnect=0;align=center;shape=mxgraph.office.devices.workstation_pc;" vertex="1" parent="1">
          <mxGeometry x="394" y="625.75" width="39.75" height="44.25" as="geometry" />
        </mxCell>
        <mxCell id="8attIl3rUHplhbKrGd8N-15" style="edgeStyle=orthogonalEdgeStyle;rounded=0;orthogonalLoop=1;jettySize=auto;html=1;entryX=0.5;entryY=1;entryDx=0;entryDy=0;exitX=0.501;exitY=-0.091;exitDx=0;exitDy=0;exitPerimeter=0;flowAnimation=1;" edge="1" parent="1" source="8attIl3rUHplhbKrGd8N-9" target="8attIl3rUHplhbKrGd8N-12">
          <mxGeometry relative="1" as="geometry">
            <mxPoint x="460" y="380" as="sourcePoint" />
          </mxGeometry>
        </mxCell>
        <mxCell id="8attIl3rUHplhbKrGd8N-43" value="SSH Tunneling" style="edgeLabel;html=1;align=center;verticalAlign=middle;resizable=0;points=[];" vertex="1" connectable="0" parent="8attIl3rUHplhbKrGd8N-15">
          <mxGeometry x="-0.0945" y="3" relative="1" as="geometry">
            <mxPoint x="3" y="36" as="offset" />
          </mxGeometry>
        </mxCell>
        <mxCell id="8attIl3rUHplhbKrGd8N-17" style="edgeStyle=orthogonalEdgeStyle;rounded=0;orthogonalLoop=1;jettySize=auto;html=1;entryX=0.49;entryY=1.091;entryDx=0;entryDy=0;exitX=0.486;exitY=-0.045;exitDx=0;exitDy=0;exitPerimeter=0;flowAnimation=1;entryPerimeter=0;" edge="1" parent="1" source="8attIl3rUHplhbKrGd8N-16" target="8attIl3rUHplhbKrGd8N-9">
          <mxGeometry relative="1" as="geometry">
            <mxPoint x="413.57" y="680" as="sourcePoint" />
            <mxPoint x="413.57" y="527" as="targetPoint" />
          </mxGeometry>
        </mxCell>
        <mxCell id="8attIl3rUHplhbKrGd8N-42" value="SSH Tunneling" style="edgeLabel;html=1;align=center;verticalAlign=middle;resizable=0;points=[];" vertex="1" connectable="0" parent="8attIl3rUHplhbKrGd8N-17">
          <mxGeometry x="0.1075" y="3" relative="1" as="geometry">
            <mxPoint x="4" y="-14" as="offset" />
          </mxGeometry>
        </mxCell>
        <mxCell id="8attIl3rUHplhbKrGd8N-20" value="Repo Server" style="text;html=1;align=center;verticalAlign=middle;resizable=0;points=[];autosize=1;strokeColor=none;fillColor=none;" vertex="1" parent="1">
          <mxGeometry x="369" y="236" width="90" height="30" as="geometry" />
        </mxCell>
        <mxCell id="8attIl3rUHplhbKrGd8N-21" value="Host PC" style="text;html=1;align=center;verticalAlign=middle;resizable=0;points=[];autosize=1;strokeColor=none;fillColor=none;" vertex="1" parent="1">
          <mxGeometry x="379" y="665.25" width="70" height="30" as="geometry" />
        </mxCell>
        <mxCell id="8attIl3rUHplhbKrGd8N-23" value="" style="shape=image;verticalLabelPosition=bottom;labelBackgroundColor=default;verticalAlign=top;aspect=fixed;imageAspect=0;image=https://upload.wikimedia.org/wikipedia/commons/thumb/d/d8/Red_Hat_logo.svg/2560px-Red_Hat_logo.svg.png;" vertex="1" parent="1">
          <mxGeometry x="577.0699999999999" y="104.63" width="65.86" height="50" as="geometry" />
        </mxCell>
        <mxCell id="8attIl3rUHplhbKrGd8N-24" value="" style="whiteSpace=wrap;html=1;aspect=fixed;fillStyle=hatch;fillColor=none;" vertex="1" parent="1">
          <mxGeometry x="570" y="92.25" width="80" height="80" as="geometry" />
        </mxCell>
        <mxCell id="8attIl3rUHplhbKrGd8N-25" value="CLIENT" style="text;html=1;align=center;verticalAlign=middle;resizable=0;points=[];autosize=1;strokeColor=none;fillColor=none;" vertex="1" parent="1">
          <mxGeometry x="575" y="150" width="70" height="30" as="geometry" />
        </mxCell>
        <mxCell id="8attIl3rUHplhbKrGd8N-26" value="" style="shape=image;verticalLabelPosition=bottom;labelBackgroundColor=default;verticalAlign=top;aspect=fixed;imageAspect=0;image=https://upload.wikimedia.org/wikipedia/commons/thumb/d/d8/Red_Hat_logo.svg/2560px-Red_Hat_logo.svg.png;" vertex="1" parent="1">
          <mxGeometry x="577.0699999999999" y="192.38" width="65.86" height="50" as="geometry" />
        </mxCell>
        <mxCell id="8attIl3rUHplhbKrGd8N-27" value="" style="whiteSpace=wrap;html=1;aspect=fixed;fillStyle=hatch;fillColor=none;" vertex="1" parent="1">
          <mxGeometry x="570" y="180" width="80" height="80" as="geometry" />
        </mxCell>
        <mxCell id="8attIl3rUHplhbKrGd8N-28" value="CLIENT" style="text;html=1;align=center;verticalAlign=middle;resizable=0;points=[];autosize=1;strokeColor=none;fillColor=none;" vertex="1" parent="1">
          <mxGeometry x="575" y="237.75" width="70" height="30" as="geometry" />
        </mxCell>
        <mxCell id="8attIl3rUHplhbKrGd8N-29" value="" style="shape=image;verticalLabelPosition=bottom;labelBackgroundColor=default;verticalAlign=top;aspect=fixed;imageAspect=0;image=https://upload.wikimedia.org/wikipedia/commons/thumb/d/d8/Red_Hat_logo.svg/2560px-Red_Hat_logo.svg.png;" vertex="1" parent="1">
          <mxGeometry x="577.0699999999999" y="280.13" width="65.86" height="50" as="geometry" />
        </mxCell>
        <mxCell id="8attIl3rUHplhbKrGd8N-30" value="" style="whiteSpace=wrap;html=1;aspect=fixed;fillStyle=hatch;fillColor=none;" vertex="1" parent="1">
          <mxGeometry x="570" y="267.75" width="80" height="80" as="geometry" />
        </mxCell>
        <mxCell id="8attIl3rUHplhbKrGd8N-31" value="CLIENT" style="text;html=1;align=center;verticalAlign=middle;resizable=0;points=[];autosize=1;strokeColor=none;fillColor=none;" vertex="1" parent="1">
          <mxGeometry x="575" y="325.5" width="70" height="30" as="geometry" />
        </mxCell>
        <mxCell id="8attIl3rUHplhbKrGd8N-32" value="" style="endArrow=classic;html=1;rounded=0;entryX=-0.046;entryY=0.511;entryDx=0;entryDy=0;entryPerimeter=0;exitX=1;exitY=0.5;exitDx=0;exitDy=0;edgeStyle=elbowEdgeStyle;dashed=1;dashPattern=8 8;flowAnimation=1;" edge="1" parent="1" source="8attIl3rUHplhbKrGd8N-12" target="8attIl3rUHplhbKrGd8N-24">
          <mxGeometry width="50" height="50" relative="1" as="geometry">
            <mxPoint x="340" y="370" as="sourcePoint" />
            <mxPoint x="390" y="320" as="targetPoint" />
          </mxGeometry>
        </mxCell>
        <mxCell id="8attIl3rUHplhbKrGd8N-33" value="" style="endArrow=classic;html=1;rounded=0;entryX=0;entryY=0.5;entryDx=0;entryDy=0;exitX=1;exitY=0.5;exitDx=0;exitDy=0;edgeStyle=elbowEdgeStyle;dashed=1;dashPattern=8 8;flowAnimation=1;" edge="1" parent="1" source="8attIl3rUHplhbKrGd8N-12" target="8attIl3rUHplhbKrGd8N-30">
          <mxGeometry width="50" height="50" relative="1" as="geometry">
            <mxPoint x="464" y="230" as="sourcePoint" />
            <mxPoint x="576" y="143" as="targetPoint" />
            <Array as="points">
              <mxPoint x="510" y="260" />
            </Array>
          </mxGeometry>
        </mxCell>
        <mxCell id="8attIl3rUHplhbKrGd8N-34" value="" style="endArrow=classic;html=1;rounded=0;entryX=0;entryY=0.5;entryDx=0;entryDy=0;edgeStyle=elbowEdgeStyle;dashed=1;dashPattern=8 8;exitX=1;exitY=0.5;exitDx=0;exitDy=0;flowAnimation=1;" edge="1" parent="1" source="8attIl3rUHplhbKrGd8N-12" target="8attIl3rUHplhbKrGd8N-27">
          <mxGeometry width="50" height="50" relative="1" as="geometry">
            <mxPoint x="460" y="230" as="sourcePoint" />
            <mxPoint x="576" y="143" as="targetPoint" />
          </mxGeometry>
        </mxCell>
        <mxCell id="8attIl3rUHplhbKrGd8N-36" value="" style="whiteSpace=wrap;html=1;aspect=fixed;fillStyle=hatch;fillColor=none;" vertex="1" parent="1">
          <mxGeometry x="190" y="180" width="80" height="80" as="geometry" />
        </mxCell>
        <mxCell id="8attIl3rUHplhbKrGd8N-37" value="" style="sketch=0;pointerEvents=1;shadow=0;dashed=0;html=1;strokeColor=none;fillColor=#DF8C42;labelPosition=center;verticalLabelPosition=bottom;verticalAlign=top;align=center;outlineConnect=0;shape=mxgraph.veeam2.nas_backup;" vertex="1" parent="1">
          <mxGeometry x="205" y="189.62" width="50" height="50" as="geometry" />
        </mxCell>
        <mxCell id="8attIl3rUHplhbKrGd8N-38" value="NFS" style="text;html=1;align=center;verticalAlign=middle;resizable=0;points=[];autosize=1;strokeColor=none;fillColor=none;" vertex="1" parent="1">
          <mxGeometry x="205" y="233.75" width="50" height="30" as="geometry" />
        </mxCell>
        <mxCell id="8attIl3rUHplhbKrGd8N-40" style="edgeStyle=orthogonalEdgeStyle;rounded=0;orthogonalLoop=1;jettySize=auto;html=1;entryX=0.963;entryY=0.435;entryDx=0;entryDy=0;exitX=0.008;exitY=0.444;exitDx=0;exitDy=0;exitPerimeter=0;flowAnimation=1;entryPerimeter=0;" edge="1" parent="1">
          <mxGeometry relative="1" as="geometry">
            <mxPoint x="374" y="210.71999999999997" as="sourcePoint" />
            <mxPoint x="266.40000000000003" y="210" as="targetPoint" />
          </mxGeometry>
        </mxCell>
        <mxCell id="8attIl3rUHplhbKrGd8N-41" style="edgeStyle=orthogonalEdgeStyle;rounded=0;orthogonalLoop=1;jettySize=auto;html=1;entryX=-0.014;entryY=0.646;entryDx=0;entryDy=0;exitX=1.002;exitY=0.568;exitDx=0;exitDy=0;exitPerimeter=0;flowAnimation=1;entryPerimeter=0;" edge="1" parent="1" source="8attIl3rUHplhbKrGd8N-36">
          <mxGeometry relative="1" as="geometry">
            <mxPoint x="266.64" y="224.04000000000002" as="sourcePoint" />
            <mxPoint x="372.88" y="224.68" as="targetPoint" />
          </mxGeometry>
        </mxCell>
        <mxCell id="8attIl3rUHplhbKrGd8N-50" value="" style="shape=image;verticalLabelPosition=bottom;labelBackgroundColor=default;verticalAlign=top;aspect=fixed;imageAspect=0;image=data:image/png,iVBORw0KGgoAAAANSUhEUgAAAMgAAADICAYAAACtWK6eAAAAAXNSR0IArs4c6QAAF6FJREFUeF7tnXuQHMV9x7+/vdOJ12lnJShACCPAYHCVgyEUZTD8oSq4WQkrPCMExHnakPjBy4CMkHZmDkkgwETYwQWYvAGZczAGZHRzUKVUQiBOQWSHKmMMBcIIyRRIO6vjpZNuO8zenrjX3s6ju6dnpucPlaqu+/f79ffXn+2eR3cT9CVGAdsudJ/ZVZrBho5jw4UvguonM9CJAOYBmA1gPwCdAAoAqEUQDEAdwF4AHwGoAthKYC+DFTYPEzazjs7XBp8dqsK2/XL64qxAq8RwdpNhc319HbOMV44psPpXAFwA4CQA3dN0elFi+DANfhLDrz6J4bE6FTbs8j73OpYsGRblMA92NSAhs9z9zJo5ncN7ljDgCgBfANAR0oTs4j4gLxFw/96OGX2DZy/fITuANPvTgLTJ3twn7QM+mEGXE+EGAMcpk2x/vIievVcZwx0H7mEPbVtsf6hMmxQMJLrECjaGV0izn7Ln1TuwGqClALp42VXUzhCA9YVhtmLnInurojEmFpYGpCn9wf2rDx8u7FnHGF3cvHFOLCkJOq4T8JMO1nnte+WbtycYhzKu8w1In91lFOkmAMunGil8cfyZTE4vf2RZ49XYrVhi+//P5ZVLQEob7T+oF+gRAk7IZdZDNpoBvynU2SXVhfb/haya+uK5AqTY73ydCD8AMDP1mUumAbsZ0bdqPZUHknEv32v2AbHtQul0rGWg78R67hM1N/GeNkX1KroeI7DvVZ/Hsqy/oMwuIH19HaXir3/IQP77ipxfnCidwgwB91VrJ34zqy8kswcIY2S4zp0gui7nVEzZ/KAPHoKW2+eEsbs807oeRJl6rpEpQEqu8zcMuCeRqVQIGkN1Pk4//iHCC150cmyMGH2jWq7cG9yI2iUzAUix3z4FRP9FIx8AyrlU7rhyFGjphQEfg7Ev18r2/yYcSmz3qQZk/iZ7P2+I/qf5TVRsMcYbyBoBibTnJaOLnbZlgf0x5+RIM5daQIpu7/UEdoc0pXLniB9QDHRDzazcmUYJUwfIrH57doHotwDmTC04v8SmMaEKx7yjztjxu8r2ToVjnBRaqgApuc7NDFiVJoF1rOMVIKKbqz2VNWnRJRWANO81XgNwRFqE1XFOq8Db3nDpWCy6arfqOikPSNF1ziFgQHUhdXzhFWCMnVMr28+ErymvhtKAGK7zIIDL5cmhPclXgD3omfZX5fsN5lFNQF64b4ax4/dvATg0WDOSKJWuhwGhXk7Kl/Mdb85hR+LUK/fIdz29R+UAKT5jH0PD9GqOFy1x7COpgrjOUPhszVz5BkcBYptSChBjo30hCvRo6Falqh+Ebl2+KhAu9Hqsx1RptDKAlPrttYzoRlWEiRWHBjaWfMTY7dWyvSyWEU6VlQDEcJ0nACzm1CbJZlrToPi8n4NOAn8JGD3hlSvncQgylonEATFcZzOAL8Zqha6cVQV+6ZnWyUk2LlFADNfxb8jmJymA9q28Als80zo6qSiTAYQxKg70biPgsKQarv2mSoHtXk/liCQWY8kHxF/xN9D7DoBDUpUiHWzSCrzr9VQOlQ2JdEAM19kG4PCk1db+U6nAds+05sqMXCoghuu8DiCx+aRMYbUvYQq84ZnWMcKsTzAsDRDDdV4EcIqshmk/mVbgRc+0TpXRQimAGG7vYwA7X0aDVPaR/fciUtV/zDOtC0V7FA5Isd9eTUT+3rfiL4HvrcQHr7AHRXVlwOqaaa0QqZxQQEqus5gB/ltyfWVCgbikxK0/WUQCW1w17Q2i5BUGSOlp6zOsXnhTVODj7fIXXk7cnLzkvPkFdHxmp7nCXx7B/RIDyCa70xgif6sX1Y8n4y6oNpiIAsNe7cSZIrY/FQKI4Tr+SUXKrx/XN82JdGZRTt/2TMs/QZjrxR0Qo9/+EYi+xjVKbSwVCiT+g8PYA17Z/jpPsbgCUnraOpPVC//JM8Bs2sr5TYPApFKhflb1HOdZXi74AdJYR/7OboDxs8mrldpOQAUyAS7z5hw2k9f6dm6dWX9GErAP6mIyFOD2OQoXQIwB52owrJPRcu1DKxBIAcI1Xo91d6Cy0xSKDcjBj6/t3rvfx7viBqLrawV4K9D58X6z3jtv2WAcu7EBydXn6wpM0RN/UhSnt8mvG/vz+FiAFN3eKwjsPvnt1h5zpUCMHyYGurJmVu6Pqld0QEZ2P8ztAfNRBVe2XoxOqGybmoF5cw7rivpUKzIgRdd5noAvqS5O0Pj01CWoUukrx4Dna6Z1RpTIIwHSvfGWz3UU6r+J4lDXyYACKRxthuuFEwYXrnwlrPqRADFcx39q1R3WmS6vFZikADfY2hoa9ExrVtgMhAak5PYuZWDrwzoKXr5tQ4Ob0iW1AmMUYMDSmmk9EkaU0IAYrjOsd14PI7Euq5ACdc+0Qi3BCAWIPiNQoVTrUCIpEPaMxOCAjGz4Vo8Ula6kFVBIAa+nUgi6AV1gQKRuvqCQmDqU7CnAGFtTK9s3B2lZMED06BFES10mRQoEHUUCAVIc6L2RGFubovbrUBsK6CeCrToCI1pW66nc3q6jBAJEP7maXsZMvoXPPluBnmi1BcRw7fMB+vTMuAjCZbIDtfvp0X9PgQLsAs+0fzZdoAEA0W/NU5BpHWI0Bdq+XZ8WEOPnq45C5/CWaL51rUwrEGEmoaQeezvme+euaLnB4bSAZO2LXSUTpINKVIF2X/q2BsS2C8bp5H9Wwu/Kyq8OP0W0JQUU8J5nHbDtKV+CtwSkOOBcSQz3KhC/DkErIFSB6VYdtgTk00/a9c++0Oxo4yoo0PJmfUpAZj9lz6p3UE2FyHUMWoEoCoR9tVAYZsWdi+xJu/NMCYjR76wD4eoogek6WoFUKsBwt1e2rpkY+9SAuM5uAF2pbOiUQetpYoBc+jephbblsivlkGdaM9sCYmyyDQxRta1QukBmFPBPaerswr/vGSJPlTNdwk6ReCSDCjON6jnfHXdrMWkEKbrOGgJu4uFQ21BfgbFHmB2yyT5IJUhkq8eAW2umNe48zUmAGK7jExR6cXvQxiTxyxA0tlDlMjDVmOp8P3GQpEKwXZ5pFcf2g/GA+Een7aY9aPuFVqiuxKVwZsDiokZ8IwT8UdW0npzKkjhI4sct2oLXxWZggb131M84FEr9zrmMIOzEUNGN0/aDKTAdHKMWmpD4s4n2N+7B3CZYKvjoRQxfqZatn08JSNF1niPg9ARbknLXwRORVEODwJFNSIIpPvHbrHEjiF4YFUxEuQv1+EEXBo5RJZrHW/hPtzIwkgTK77iFVPsAmffcXfu/Pzj4YSAToQrxS3Aot7rweAWInef12E9EkSVvkBzU3X3A1jOu+8jXah8gJddZzIBIAjZEj8pB1HotM83dYJQ+pVadGHAoNZJISu3YkfZTQPqdfkYwY2VWUgNixZi3yhzgUAoSYfn7tPMyUH/NrCwcN4IYrvMBgAOE+c+DYdV+IDjCkQ9I9nXSDz3TOnAiIH569SVZAWHvdwTAkRdI/JxUTasxu2r8073JPrhjiN6V3De0O1EKMJzvla3HRZn37cq/cZc7PA93sUMGF9jvNQApuvbFBPqJSEGj2ZYrSrQYFaslAY48jCSM4eJa2Xp0FJD1BFqqWKrFhJNl5iTCkXVIGNiPa6Z9aQMQw3XeAjBPTI/UVkUqsO8eJgE45EIi/Zdtq2daR44C4n+cFepgkehJl9NQYTe/0RsurmaCcMiFRJyEU1ge9kyrcxSQlD7BkgOb1LSEdtZ++8zQJiNWaO5l4C+2y8RnKZ5pEc3fZO/nDVHjtbq+0qaAOnCMKpclSIwutj8V3VuOJtRfT1vX0PGqB4dwSCRPGBgKx1BpwF7EGO37/l25jidZFOXaP2VA6sIhBpKonSBqvZFWELFzqTTQu5wxtjodHUNHCcKFXo/16XEUCksybroVr68m0kr/wE8q9jsPE+HSRCLQTsMpkCI4xIwk4eSKW5oxrCfDdX4B4LS4xnR9wQqkEI60Q0LAL8gYcLaA4SjB6dXm4yiQYjhSDQnhTX8E2QmgFCd/uq5ABTIAR4ohqfqA+Mts9xeYYm06qgJ1dpG30P5p1Ooq1kvZe5KPfED2AOhUUcxcx5RBOEbzWXr6tiKr7/ZnLnLeuEd/grbXB8Q/RUpOoLnu8SEan2E4EoMkhPxjitZ9QPxdvcPvpRidymih5qVWDuBIESQsOiB56bAS2zm6SEeiy8RdSZ9uhWuxBiScXuJK5xEOJUaS6WdCCgCip2rIMxyJQtK+7zXuQfjdpLd3KO4nOKWW9zJc/H7ZejSl4XMNW8HpVgMQ/ZiXa5qDG9Mjx2StFIOk8ZhXvygM3qe5lWRgf1wz7X/jZjBDhhSCpPGi0F8iaWRIX+WbouFonyJFIKnqjxXb54prCQ1HcDkTh6T5saL+3D14zmKV1HCEly9JSBjw38IXTOVq+51p8s8IS2o9loK7V4bvtLJrJAVJY8FU+yW3+tlt3A6h4YirIGBssg0M0Q6Z3w0S6Cb1N22Ir22iFjQc/OSXDUlj04Z8bfsjbzT0p5Z1Pa3iR0fTklRI6uxovXEc9xSOGGSMLqmVK32CzOfarCxIGhvH+UobrpPSrUfV7CcaDvF5aULiL7oKv1QjYHiNrUebgEjcvDpgdCktpuGQlzjBkIzbvLr98Qfypu/yFObsScPBWdAA5gRC8pZnWp/J3wE6AUSPUkTDEUU1PnVEQMLAHq6Z9uWKH8HGR8AwVqK82GTA0pppPRLGjy7LVwHukDSXPks4xDPbczMNB9+OHscaT0iGO2YcPHj28h37ngDoJ1nhU5MVOIqu80MCzvdMa254FdSqwQsS/wmW37KxgHwA4AC1mqtuNNmBw76HQN9oKr09C5AUN9xaohlD/mcpUR8Bf+iZ1oHjACm6vRsJrKxul1QnMgJdWjUrP1YnomiRFN1xcIwayR4kIWf5DNhYM61F4wApuc5iBjwRTer81Mo4HNmFJEQXJbDFVdPeMA6Qec/dtf/7g4P+8lt9tVAgJ3DkHpKDursP2HrGdY1zO8fN0bjucJIxzLICh9Hv/B0I3wyYnuxNt9o3vPEGfbTYRECeBfDl9jbyVSKncIwmeZtnWkekPeMhbtyf80xrHwPjACm5zkIGPJV2MXjGT4TLqj3Wep42k7AVcuSYGGJuICFgUdW0Nk45gmCT3WkMkb9Plr4ap5xqOMZ0hFxA4nWxGVhg+x/vNq5Jz4kN16kBmNX4a8jHY1miKjNwDNg/AKNvTZub4HnOHCQTPi3a5ZlWcaxWkwApus4aAm5SprMHTx6HkEec5QqO8KplDpJRCRhja2pl++ZpAWnuIOGF1y0bNYjR5dVy5eG0t8YIMnJEb2Q2IeliJW+BPa7vT/kq3nCd3QC6ouuXzpoajlB5yxokezzTmjlRgRaA2H8L0DWh5Ep54czA4TrfB/BtSenIBCSz+u3ZBcJKz7SvDQRI8yRS/2Zd2hVlHQav4DQcsZTMBCStFGj5taPhOrsAdMeSLgWVNRxckvS2Z1rzuFhSzEhLQIoDzpXEcK9i8XINh4A/qZrWQ1yNJmDMCDytEvpIMJOQtP5e3rYLxunknz6VySt/cEhJY+YgmXZBSdF1niPgdCnShnIS75cwO3DYdwN0VSjpuBVumYNMQTItIMZGez4K9AY3TRUwpOGQkoTMQNJ2SWKWbtaJ6KvVnsqDUrqIQCeGm+TIEbhhmYCkPSADzgVg+GlgWSQXDPp4WMMhOTEj7lIPSVtA/FamfSFVZuDod9aBcHUiXT2601RDEgiQYr+zjAi3RdcouZoajqm0j/eQI0I2t3qmdWSEeolXCQSIv5e/MdDrP/INVj7xZjUDYPhTr2z9qyrhRI3DSOfIMbG5qYQkcIcv9turiWh51CRLr6fh2PcrodDvWuogCQyIeqPINNOErMDhivpoVPoUa+zvY6ogCQ4IgPYHfkofJyY71HAokIS2IaQGklCAKP9ES8PRtmcqVCAVkIQGpOg6lxCg3rabjP7MK1f+RaEOECkUQ9i0KlI4oispD0loQJqjiFqfwmcGDucuAJMW7YjupQnbVxqSSIB0P2Mf3zFMryQs7Ih7Dce+NIx8VZDoDXjULtE47ixqZZH1IgHiB1R0necJ+JLI4Nra1nC0lShFBZSEJDIgCmwy9+eeaf1zijrAlKEabi6nVa3Sphwk0QHxR5HkVh1qONL+y9A6fqUgiQVI84Z9G4DDJeYrG3D0298D0XVtdUvlLUXbVrUroAwksQGRvANKvuBo142y/XclIIkNyMgo0nsVwO4Wly8GUOEvvJ7KP4nzIceyEXTkkBOO6l4Sh4QLIM2p1usAjhaiOJGGQ4iwEo1GnyomCgk3QPDCfTOMHb/3tyzlZ9PPX1bgGHDuBMN3JHZJya6iEzAx0NFVomNWi/7OM62jJDeo4Y5rZy71957FiP0Ht4ZoOLhJGc0Qv04fzf+4WolAwhWQxlSr3/4RiL4WWxANR2wJM2hAOiTcAWnej7wFIPpWlAx/6ZWtf0x7go3pplVK/TinSmmpkAgBBH19HUbxZf9+pCO09BmBo+TadzDQ9aHbrysEUUAaJGIAATDbXXVkHcO/C9LafWU0HKHkynlhKZAIA8RPXsl1FjPgiUCJ1HAEkkkXknvjLhSQkZt2pxeEldMnlv7KMyv/kPbk62mV5Awy3OKVrYpIr8IBad60/wzAeVM3JCtwOLcz4AaRydK2xynwuGda54vWRAogTUheAPCH4xuk4RCd4Izaf9EzrVNltE0aIE1IxnyOouGQkeAM+tjyyTogMZ80TSGWVECakGxjwMqaaf192pNXcv1pFbuB8wcJaZdFZPzbPdOaK9LBRNvSAZHZOJG+RuDQ9xwiNZ5g+12vp3IoiPxXrNIuDUgEqUv99lpGdGOEqrpKNAW2ez2VI2TD4YeqAQmZML5wSP7eRLK7kNJOXZzwptdjzediK4IRDUgI0fjCEcJxXosybPbK1ilJNl8DElB9DUdAobgVow2eWVnMzVxEQxqQAMKVBpzbGMOyAEV1EQ4KMLDbaqZ9EwdTsU1oQNpIqOGI3cfCGaizi7yFtjJnYmpApkmfhmO6vs39jr+OOjvWW2hvCUeU2NIakBb6hoFjzNrpyNniYSOy8+QrbvfmHHYUTr1yT/KhjI9AAzJFRoqufSuBvqtasrIYD2NYXytbl6naNg3IhMxoOOJ01XDTLkbMrPXYA3E8iq6rARmjcFbgSMF0bZvRxY7dssD+WHQHj2tfA9JUMCtwxO0QwusTKl6PdYtwP5wcaEBGzjpZQ4ASz9055VVFMzuHO2YcP3j28h0qBtcqptwDEg2OcHPtNHWItrFGaDojWlbrqdze1raCBXINSDQ4mlls1VEidCAF+wWvkF4yuthpabjX0CPIpKdVradVKbjJ5dWBhdhhwMcgdlatx/aXWaf6yuUIUuy3VxPR8lRnTs3gGRG+Xe2x7lEzvPBR5Q4QDUf4ThKoBsPdnlm5NolFTYHii1goV4BoOCL2kumqMfaAt+vzf40lS4YFWE/cZG4AKbrOKgJuTlzxbATgP4pY5z3Prodt17PRpKlbkRtA/OY3T+X9PoCuLCdVYNuGGOGqWo91n0AfSpnOFSCjyhv9vScBrA+E45XKhqrBMPwWoCVeufIrVUMUFVcuAdknZp/dZcyiFaDGasGYo0rmXoAMgWGtt4utwhJ7SFQHVN1uvgEZk52DB+y5exmtA3ARgILqiRMUn38/8WgnsWve67G3CfKRKrMakCnS1TjbhO1dBaKl8UcW5fuDPzqsL6Bj5U5zhX8ymL7GKKABadMd5j5pH/DBzMJlxJi/UdxxGek9rzKGOw7cwx7attj+MCNtEtIMDUhIWbufWTOnc3jPEgZc8cl05AuRjpkL6TNmcf/9xEsE3L+3Y0Zf2r6mjdn22NU1IHEl7OvrmDXr10cXiPw9nC4AcBKA7tFdKyV+1+U/JRgE8EsweqyO+oZduz7/RlZf4MVNW9D6GpCgSoUtZ9uF7jO7SjS897MdDCeD2CkMOKF5+m8JwP4AOpsPBFrlgQGsDtBeAB8BqALYSmAvgxU2DxM2s47O1wafHapm/YVdWPl5lf9/BXbLE9eHJfcAAAAASUVORK5CYII=;" vertex="1" parent="1">
          <mxGeometry x="385.78000000000003" y="186.4" width="56.44" height="56.44" as="geometry" />
        </mxCell>
      </root>
    </mxGraphModel>
  </diagram>
</mxfile>
